<svg width="29" height="30" viewBox="0 0 29 30" fill="#000000" xmlns="http://www.w3.org/2000/svg">
<path fill-rule="evenodd" clip-rule="evenodd" d="M14.3224 21.7791C14.8635 21.7933 15.2906 22.2434 15.2764 22.7845V22.7845C15.232 24.4806 16.2444 26.0265 17.817 26.6636L20.1163 27.5952C20.5554 27.7731 20.8043 28.2397 20.7076 28.7035C20.6109 29.1673 20.1962 29.4955 19.7226 29.4831L8.52645 29.19C8.05282 29.1776 7.65589 28.8281 7.58359 28.3598C7.51128 27.8916 7.78431 27.4387 8.23214 27.284L10.577 26.474C12.1808 25.92 13.2727 24.4293 13.3171 22.7331V22.7331C13.3313 22.1921 13.7814 21.765 14.3224 21.7791Z"/>
<path fill-rule="evenodd" clip-rule="evenodd" d="M1.55058 3.84073C0.748693 5.31763 0.697381 7.27714 0.594758 11.1962C0.492134 15.1152 0.440823 17.0747 1.16432 18.5915C1.80072 19.9258 2.84319 21.0243 4.1423 21.7297C5.6192 22.5316 7.57871 22.5829 11.4977 22.6855L17.0958 22.8321C21.0148 22.9347 22.9744 22.986 24.4912 22.2625C25.8254 21.6261 26.924 20.5837 27.6293 19.2846C28.4312 17.8077 28.4825 15.8481 28.5852 11.9291C28.6878 8.01009 28.7391 6.05058 28.0156 4.53374C27.3792 3.19949 26.3367 2.10096 25.0376 1.3956C23.5607 0.593708 21.6012 0.542396 17.6822 0.439773L12.0841 0.293182C8.16508 0.190559 6.20557 0.139247 4.68872 0.862743C3.35447 1.49915 2.25594 2.54161 1.55058 3.84073ZM13.1742 9.37197C12.7934 9.03741 12.2204 9.04838 11.8527 9.39728L8.26232 12.8045C7.86972 13.177 7.85348 13.7973 8.22604 14.1899C8.59861 14.5825 9.21889 14.5988 9.6115 14.2262V14.2262C11.2773 12.6454 13.8736 12.5957 15.5987 14.1115L15.9874 14.4531C16.3682 14.7876 16.9412 14.7767 17.3089 14.4278L20.8993 11.0206C21.2919 10.648 21.3081 10.0277 20.9356 9.63512C20.563 9.24252 19.9427 9.22628 19.5501 9.59884V9.59884C17.8843 11.1796 15.288 11.2293 13.5629 9.71351L13.1742 9.37197Z"/>
</svg>
