<svg width="29" height="23" viewBox="0 0 29 23" fill="#000000" xmlns="http://www.w3.org/2000/svg">
<path fill-rule="evenodd" clip-rule="evenodd" d="M0.238954 10.0789C0.244744 9.68779 0.250266 9.31489 0.256399 8.95903L28.2516 9.37353C28.2472 9.72942 28.2417 10.1023 28.2359 10.4934L28.2027 12.7332C28.1405 16.9324 28.1095 19.032 27.0183 20.4881C26.6659 20.9583 26.2416 21.3702 25.7612 21.7085C24.2735 22.7561 22.1738 22.725 17.9746 22.6628L10.1355 22.5468C5.93622 22.4846 3.8366 22.4535 2.38054 21.3623C1.9103 21.0099 1.49845 20.5857 1.16012 20.1052C0.112529 18.6175 0.143617 16.5179 0.205791 12.3186L0.238954 10.0789ZM28.2576 7.41341L0.308398 6.99959C0.402614 4.74869 0.639349 3.3702 1.4234 2.32398C1.7758 1.85374 2.20003 1.44189 2.6805 1.10356C4.16822 0.0559679 6.26784 0.0870553 10.4671 0.14923L18.3062 0.265298C22.5055 0.327473 24.6051 0.35856 26.0611 1.44974C26.5314 1.80215 26.9432 2.22637 27.2816 2.70684C28.0343 3.77582 28.2301 5.16071 28.2576 7.41341ZM24.3278 19.1165C24.869 19.1245 25.3142 18.6923 25.3222 18.1511C25.3302 17.6099 24.898 17.1647 24.3568 17.1567L20.7172 17.1028C20.176 17.0948 19.7308 17.527 19.7228 18.0682C19.7148 18.6094 20.147 19.0546 20.6882 19.0626L24.3278 19.1165Z"/>
</svg>
