<svg width="28" height="28" viewBox="0 0 28 28" fill="#000000" xmlns="http://www.w3.org/2000/svg">
<path fill-rule="evenodd" clip-rule="evenodd" d="M13.3976 0.0286035C12.1797 0.144565 11.0552 0.730946 8.80622 1.90371L7 2.84557L5.21029 3.81373C2.98183 5.01924 1.8676 5.62199 1.14951 6.53434C0.913339 6.83439 0.711467 7.15607 0.547099 7.49427C0.0473269 8.52257 0.0370523 9.71171 0.0165033 12.09L0 14L0.0165033 15.91C0.0370523 18.2883 0.0473269 19.4774 0.547099 20.5057C0.711467 20.8439 0.913339 21.1656 1.14951 21.4657C1.8676 22.378 2.98183 22.9808 5.21029 24.1863L7 25.1544L8.80622 26.0963C11.0552 27.2691 12.1797 27.8554 13.3976 27.9714C13.7981 28.0095 14.2019 28.0095 14.6024 27.9714C15.8203 27.8554 16.9448 27.2691 19.1938 26.0963L21 25.1544L22.7897 24.1863C25.0182 22.9808 26.1324 22.378 26.8505 21.4657C27.0867 21.1656 27.2885 20.8439 27.4529 20.5057C27.9527 19.4774 27.9629 18.2883 27.9835 15.91L28 14L27.9835 12.09C27.9629 9.71171 27.9527 8.52257 27.4529 7.49427C27.2885 7.15607 27.0867 6.83439 26.8505 6.53434C26.1324 5.62199 25.0182 5.01924 22.7897 3.81373L21 2.84557L19.1938 1.90371C16.9448 0.730946 15.8203 0.144565 14.6024 0.0286035C14.2019 -0.00953451 13.7981 -0.00953451 13.3976 0.0286035ZM12.4786 11.5757C13.4238 11.0888 14.5762 11.0888 15.5214 11.5757C16.4523 12.0853 17.0285 13.0035 17.0427 14C17.0285 14.9965 16.4523 15.9147 15.5214 16.4243C14.5762 16.9112 13.4238 16.9112 12.4786 16.4243C11.5477 15.9147 10.9715 14.9965 10.9573 14C10.9715 13.0035 11.5477 12.0853 12.4786 11.5757ZM11.4545 18.0562C9.89 17.2098 8.92352 15.6697 8.90909 14C8.92352 12.3303 9.89 10.7902 11.4545 9.94384C13.0335 9.12048 14.9665 9.12048 16.5455 9.94384C18.11 10.7902 19.0765 12.3303 19.0909 14C19.0765 15.6697 18.11 17.2098 16.5455 18.0562C14.9665 18.8795 13.0335 18.8795 11.4545 18.0562Z"/>
</svg>
