<svg width="28" height="28" viewBox="0 0 28 28" fill="#000000" xmlns="http://www.w3.org/2000/svg">
<path fill-rule="evenodd" clip-rule="evenodd" d="M0.599367 9.89097C0 11.3132 0 12.9224 0 16.1407V18.2404C0 22.4938 0 24.6205 1.2949 25.9418C2.55891 27.2316 4.57492 27.2624 8.54737 27.2631C8.64444 27.2632 8.74268 27.2632 8.8421 27.2632H19.1579C19.2573 27.2632 19.3556 27.2632 19.4526 27.2631C23.4251 27.2624 25.4411 27.2316 26.7051 25.9418C28 24.6205 28 22.4938 28 18.2404V16.1407C28 12.9224 28 11.3132 27.4006 9.89097C27.313 9.68313 27.2163 9.47944 27.1107 9.28051C26.3882 7.91919 25.1505 6.92207 22.675 4.92785C18.7398 1.75762 16.7722 0.172506 14.4921 0.0167839C14.1644 -0.00559464 13.8356 -0.00559464 13.5079 0.0167839C11.2278 0.172506 9.26021 1.75762 5.32498 4.92785C2.84954 6.92207 1.61182 7.91919 0.889273 9.28051C0.783687 9.47944 0.686953 9.68313 0.599367 9.89097ZM19.4526 27.2631C19.4526 26.5325 19.3116 25.8089 19.0376 25.1339C18.7636 24.4588 18.3619 23.8454 17.8556 23.3288C17.3493 22.8121 16.7482 22.4023 16.0866 22.1227C15.4251 21.843 14.716 21.6991 14 21.6991C13.2839 21.6991 12.5749 21.843 11.9134 22.1227C11.2518 22.4023 10.6507 22.8121 10.1444 23.3288C9.63808 23.8454 9.23645 24.4588 8.96243 25.1339C8.68841 25.8089 8.54737 26.5325 8.54737 27.2631H10.6105C10.6105 26.8089 10.6982 26.3592 10.8685 25.9395C11.0389 25.5199 11.2885 25.1386 11.6033 24.8175C11.918 24.4963 12.2917 24.2415 12.7029 24.0677C13.1141 23.8939 13.5549 23.8044 14 23.8044C14.4451 23.8044 14.8859 23.8939 15.2971 24.0677C15.7083 24.2415 16.082 24.4963 16.3967 24.8175C16.7115 25.1386 16.9611 25.5199 17.1315 25.9395C17.3018 26.3592 17.3895 26.8089 17.3895 27.2631H19.4526Z"/>
</svg>