<svg width="17" height="17" viewBox="0 0 17 17" fill="#000000" xmlns="http://www.w3.org/2000/svg">
<path fill-rule="evenodd" clip-rule="evenodd" d="M0.683271 2.48108C0 3.63255 0 5.17846 0 8.27027C0 11.3621 0 12.908 0.683271 14.0595C1.13089 14.8138 1.7747 15.4402 2.55 15.8757C3.73346 16.5405 5.32231 16.5405 8.5 16.5405C11.6777 16.5405 13.2665 16.5405 14.45 15.8757C15.2253 15.4402 15.8691 14.8138 16.3167 14.0595C17 12.908 17 11.3621 17 8.27027C17 5.17846 17 3.63255 16.3167 2.48108C15.8691 1.72674 15.2253 1.10032 14.45 0.664804C13.2665 0 11.6777 0 8.5 0C5.32231 0 3.73346 0 2.55 0.664804C1.7747 1.10032 1.13089 1.72674 0.683271 2.48108ZM9.00545 9.18198L8.83065 9.28828C8.11998 9.72045 7.6791 9.98615 7.34859 10.137C7.29188 10.1628 7.24567 10.1818 7.20879 10.1956C7.20131 10.1579 7.19333 10.1097 7.18583 10.0492C7.14209 9.69656 7.14 9.19198 7.14 8.37657V8.16397C7.14 7.34856 7.14209 6.84398 7.18583 6.49136C7.19333 6.43085 7.20131 6.38269 7.20879 6.34492C7.24567 6.35876 7.29188 6.37771 7.34859 6.40359C7.6791 6.55439 8.11998 6.82009 8.83065 7.25226L9.00545 7.35856C9.64776 7.74915 10.0359 7.98754 10.2884 8.18565C10.3313 8.21934 10.3644 8.24748 10.3897 8.27027C10.3644 8.29307 10.3313 8.3212 10.2884 8.35489C10.0359 8.553 9.64776 8.79139 9.00545 9.18198ZM9.63615 6.37671C10.8677 7.12561 11.4834 7.50006 11.5933 8.02085C11.628 8.18541 11.628 8.35513 11.5933 8.51969C11.4834 9.04048 10.8677 9.41493 9.63615 10.1638L9.46135 10.2701C8.09396 11.1016 7.41027 11.5174 6.85655 11.3548C6.68262 11.3037 6.52191 11.217 6.38521 11.1006C5.95 10.7299 5.95 9.94547 5.95 8.37657V8.16397C5.95 6.59507 5.95 5.81061 6.38521 5.43995C6.52192 5.32351 6.68262 5.23685 6.85655 5.18576C7.41027 5.02314 8.09396 5.4389 9.46135 6.27041L9.63615 6.37671Z"/>
</svg>
