<svg width="20" height="18" viewBox="0 0 20 18" fill="#000000" xmlns="http://www.w3.org/2000/svg">
<path d="M0.476191 8.49563C0.476191 6.02068 0.476191 4.7832 1.1128 3.9157C1.3184 3.63553 1.56726 3.38915 1.85024 3.1856C2.72646 2.55532 3.97637 2.55532 6.47619 2.55532H13.5238C16.0236 2.55532 17.2735 2.55532 18.1498 3.1856C18.4327 3.38915 18.6816 3.63553 18.8872 3.9157C19.5238 4.7832 19.5238 6.02068 19.5238 8.49563V8.87279C19.5238 11.3477 19.5238 12.5852 18.8872 13.4527C18.6816 13.7329 18.4327 13.9793 18.1498 14.1828C17.2735 14.8131 16.0236 14.8131 13.5238 14.8131H6.47619C3.97637 14.8131 2.72646 14.8131 1.85024 14.1828C1.56726 13.9793 1.3184 13.7329 1.1128 13.4527C0.476191 12.5852 0.476191 11.3477 0.476191 8.87279V8.49563Z"/>
<path fill-rule="evenodd" clip-rule="evenodd" d="M6.44737 2.08387H13.5526C14.7781 2.08386 15.7368 2.08386 16.4969 2.1654C17.2719 2.24853 17.8968 2.42092 18.4297 2.80419C18.7531 3.03682 19.0375 3.3184 19.2724 3.63859C19.6596 4.1661 19.8337 4.7848 19.9177 5.55209C20 6.30466 20 7.25378 20 8.46708V8.90134C20 10.1146 20 11.0638 19.9177 11.8163C19.8337 12.5836 19.6596 13.2023 19.2724 13.7298C19.0375 14.05 18.7531 14.3316 18.4297 14.5642C17.8968 14.9475 17.2719 15.1199 16.4969 15.203C15.7368 15.2846 14.7781 15.2846 13.5526 15.2846H6.44735C5.22186 15.2846 4.26321 15.2846 3.50307 15.203C2.72807 15.1199 2.10316 14.9475 1.57034 14.5642C1.24693 14.3316 0.962524 14.05 0.727555 13.7298C0.340443 13.2023 0.166313 12.5836 0.0823469 11.8163C-8.83426e-06 11.0638 -4.91782e-06 10.1146 7.76141e-08 8.90133V8.46709C-4.91782e-06 7.25379 -8.83426e-06 6.30467 0.0823469 5.55209C0.166313 4.7848 0.340443 4.1661 0.727555 3.63859C0.962524 3.3184 1.24693 3.03682 1.57034 2.80419C2.10316 2.42092 2.72807 2.24853 3.50307 2.1654C4.26321 2.08386 5.22187 2.08386 6.44737 2.08387ZM3.60566 3.10282C2.91169 3.17726 2.47354 3.32 2.13014 3.56701C1.88758 3.74149 1.67427 3.95267 1.49805 4.19281C1.24855 4.5328 1.10437 4.96659 1.02919 5.65365C0.953035 6.34954 0.952381 7.24765 0.952381 8.49563V8.87279C0.952381 10.1208 0.953035 11.0189 1.02919 11.7148C1.10437 12.4018 1.24855 12.8356 1.49805 13.1756C1.67427 13.4157 1.88758 13.6269 2.13014 13.8014C2.47354 14.0484 2.91169 14.1912 3.60566 14.2656C4.30853 14.341 5.21567 14.3416 6.47619 14.3416H13.5238C14.7843 14.3416 15.6915 14.341 16.3943 14.2656C17.0883 14.1912 17.5265 14.0484 17.8699 13.8014C18.1124 13.6269 18.3257 13.4157 18.502 13.1756C18.7515 12.8356 18.8956 12.4018 18.9708 11.7148C19.047 11.0189 19.0476 10.1208 19.0476 8.87279V8.49563C19.0476 7.24765 19.047 6.34954 18.9708 5.65365C18.8956 4.96659 18.7515 4.5328 18.502 4.19281C18.3257 3.95267 18.1124 3.74149 17.8699 3.56701C17.5265 3.32 17.0883 3.17726 16.3943 3.10282C15.6915 3.02742 14.7843 3.02678 13.5238 3.02678H6.47619C5.21567 3.02678 4.30854 3.02742 3.60566 3.10282Z"/>
<path fill-rule="evenodd" clip-rule="evenodd" d="M14.2809 14.3464C14.5413 14.0886 14.9634 14.0886 15.2237 14.3464L17.1381 16.2417C17.3984 16.4994 17.3984 16.9173 17.1381 17.1751C16.8777 17.4329 16.4556 17.4329 16.1953 17.1751L14.2809 15.2798C14.0206 15.0221 14.0206 14.6041 14.2809 14.3464Z"/>
<path fill-rule="evenodd" clip-rule="evenodd" d="M12.3762 0.19332C12.6365 0.451079 12.6365 0.868989 12.3762 1.12675L10.4618 3.02204C10.2015 3.2798 9.77937 3.2798 9.51902 3.02204C9.25867 2.76428 9.25867 2.34637 9.51902 2.08861L11.4334 0.19332C11.6937 -0.0644398 12.1158 -0.0644398 12.3762 0.19332Z"/>
<path fill-rule="evenodd" clip-rule="evenodd" d="M2.86193 17.1751C2.60158 16.9173 2.60158 16.4994 2.86193 16.2417L4.77626 14.3464C5.03661 14.0886 5.45872 14.0886 5.71907 14.3464C5.97942 14.6041 5.97942 15.0221 5.71907 15.2798L3.80474 17.1751C3.54439 17.4329 3.12228 17.4329 2.86193 17.1751Z"/>
<path fill-rule="evenodd" clip-rule="evenodd" d="M10.481 3.02204C10.2206 3.2798 9.79852 3.2798 9.53817 3.02204L7.62383 1.12675C7.36348 0.868989 7.36348 0.451079 7.62383 0.19332C7.88418 -0.0644397 8.30629 -0.0644396 8.56664 0.19332L10.481 2.08861C10.7413 2.34637 10.7413 2.76428 10.481 3.02204Z"/>
</svg>
